PathFileType	4	(X/Y/Z)	pose_F01_0-91.trc
DataRate	CameraRate	NumFrames	NumMarkers	Units	OrigDataRate	OrigDataStartFrame	OrigNumFrames
30	30	11	21	m	30	0	91
Frame#	Time	CHip			RHip			RKnee			RAnkle			RBigToe			RSmallToe			RHeel			LHip			LKnee			LAnkle			LBigToe			LSmallToe			LHeel			Neck			Nose			RShoulder			RElbow			RWrist			LShoulder			LElbow			LWrist			
		X1	Y1	Z1	X2	Y2	Z2	X3	Y3	Z3	X4	Y4	Z4	X5	Y5	Z5	X6	Y6	Z6	X7	Y7	Z7	X8	Y8	Z8	X9	Y9	Z9	X10	Y10	Z10	X11	Y11	Z11	X12	Y12	Z12	X13	Y13	Z13	X14	Y14	Z14	X15	Y15	Z15	X16	Y16	Z16	X17	Y17	Z17	X18	Y18	Z18	X19	Y19	Z19	X20	Y20	Z20	X21	Y21	Z21	
0	0.0	-0.24881686878936077	1.8344478665959083	-0.47910307831007976	-0.26200599531534	1.8317796023785338	-0.41049343510198316																-0.23608154404967774	1.8358246194010348	-0.5370298736099012	-0.21888555593442421	1.7144913281044714	-0.5603677853113251	-0.21061751656255928	1.5898321251119234	-0.5393021445133336	-0.23013906101805004	1.5566439455020178	-0.568558741582286	-0.21929753072469577	1.5651709484737013	-0.5805147032442507	-0.19574952017379155	1.5786348579794647	-0.5536014142663019	-3.2597457198121713	1.7969241938935865	2.8497569626890806	-0.24548170092359237	2.05897374481489	-0.5436151610641604	-0.25640322202538174	1.9770419532882109	-0.400158330186086	-0.2712112082620608	1.898112579687719	-0.3634639706072895	-0.2766982639732845	1.8246799140697791	-0.35658653084476877	-0.21691013239392895	1.9856103143953596	-0.578032316582157	-0.21565733529773357	1.9047054673743486	-0.6124918814352283	-0.21822071858680092	1.828058190141439	-0.6030495635390258
1	0.03333333333333333	-0.24870958060056725	1.8332041611782985	-0.4789093973598202	-0.26189884245587974	1.830739727867168	-0.4102959692455107																-0.23615474833441108	1.8335240100747607	-0.5366004699377916	-0.21888555593442421	1.7144913281044714	-0.5603677853113251	-0.21061751656255928	1.5898321251119234	-0.5393021445133336	-0.23013906101805004	1.5566439455020178	-0.568558741582286	-0.21929753072469577	1.5651709484737013	-0.5805147032442507	-0.19574952017379155	1.5786348579794647	-0.5536014142663019	-1.7491169022887096	1.8899650919997677	1.1814310070068723	-0.2474661305102202	2.058792252092318	-0.5416094702630025	-0.258205215305801	1.9796156753628324	-0.3985664284043112	-0.27096817764732817	1.8976518210406952	-0.36330763324640797	-0.2765660769540268	1.8259486936979816	-0.356689829750784	-0.21703101401325608	1.984446882395513	-0.5779495181332389	-0.21291899098960165	1.9054997257190993	-0.6028417634938904	-0.21693784613264935	1.8306745124875128	-0.6001839672435715
2	0.06666666666666667	-0.24860229241177373	1.8319604557606888	-0.4787157164095606	-0.26179168959641946	1.8296998533558022	-0.41009850338903825																-0.23622795261914442	1.8312234007484867	-0.5361710662656821	-0.21888555593442421	1.7144913281044714	-0.5603677853113251	-0.21061751656255928	1.5898321251119234	-0.5393021445133336	-0.23013906101805004	1.5566439455020178	-0.568558741582286	-0.21929753072469577	1.5651709484737013	-0.5805147032442507	-0.19574952017379155	1.5786348579794647	-0.5536014142663019	-0.2384880847652479	1.983005990105949	-0.48689494867533584	-0.24945056009684805	2.058610759369746	-0.5396037794618447	-0.26000720858622023	1.982189397437454	-0.39697452662253646	-0.27072514703259554	1.8971910623936714	-0.3631512958855264	-0.2764338899347691	1.8272174733261841	-0.35679312865679924	-0.21715189563258322	1.9832834503956664	-0.5778667196843208	-0.21018064668146974	1.90629398406385	-0.5931916455525525	-0.21565497367849779	1.8332908348335866	-0.5973183709481171
3	0.1	-0.24897156774558518	1.8295280784166024	-0.47821415416295904	-0.26216427647060037	1.827198060228384	-0.4096111624969807																-0.23646676941058528	1.830407232095673	-0.5358427828330339	-0.21888555593442421	1.7144913281044714	-0.5603677853113251	-0.21061751656255928	1.5898321251119234	-0.5393021445133336	-0.23013906101805004	1.5566439455020178	-0.568558741582286	-0.21929753072469577	1.5651709484737013	-0.5805147032442507	-0.19574952017379155	1.5786348579794647	-0.5536014142663019	-1.7491150742865045	1.8899546634036328	1.181411106989393	-0.24948577531829083	2.0585717353370607	-0.5395620268812849	-0.2599786308154701	1.9807544018645182	-0.39647870698501225	-0.2708563252847284	1.8986064629477608	-0.363438498167915	-0.2775256578513674	1.8272201521078721	-0.36008363204724925	-0.21718126546073085	1.9831723920718363	-0.5778732932912534	-0.21009212789319948	1.9049525045052123	-0.5930513843428785	-0.21545748897676972	1.8348401738026747	-0.5974039884666196
4	0.13333333333333333	-0.24793814892831215	1.8300832266728115	-0.47496271706885884	-0.26211049779024675	1.827193077844036	-0.4094973118931381																-0.2362706631525085	1.8297002531525477	-0.5357680929286166	-0.21888555593442421	1.7144913281044714	-0.5603677853113251	-0.21061751656255928	1.5898321251119234	-0.5393021445133336	-0.23013906101805004	1.5566439455020178	-0.568558741582286	-0.21929753072469577	1.5651709484737013	-0.5805147032442507	-0.19574952017379155	1.5786348579794647	-0.5536014142663019	-1.7491541912898514	1.8899661221179516	1.1814670113512724	-0.24950282932177914	2.0585055388660725	-0.5395552814121577	-0.2600140524395396	1.980642825217813	-0.39644673948053805	-0.27379958982885394	1.8956394448187976	-0.3639913057772704	-0.2758898377109418	1.8248303531918095	-0.36171514130561006	-0.21906418835866848	1.9845523438153154	-0.5756748078372188	-0.2119709311367025	1.9067637458912325	-0.5909494034665648	-0.21515834863696431	1.8354655891734575	-0.5975361405441684
5	0.16666666666666666	-0.2476701879509583	1.8298970556599916	-0.47501885389797754	-0.2618468178372572	1.8271360777256076	-0.40955863513102403																-0.23628327470959376	1.829490657919599	-0.5357385349126911	-0.21888555593442421	1.7144913281044714	-0.5603677853113251	-0.21061751656255928	1.5898321251119234	-0.5393021445133336	-0.23013906101805004	1.5566439455020178	-0.568558741582286	-0.21929753072469577	1.5651709484737013	-0.5805147032442507	-0.19574952017379155	1.5786348579794647	-0.5536014142663019	-0.24038437912816157	1.9828263254135214	-0.484724213732232	-0.2495938728300384	2.05604785430267	-0.5391131776092175	-0.26187380355269896	1.9819428542936064	-0.3947885701688321	-0.27186846980111423	1.8971036664878362	-0.36619326338955177	-0.27726475115998267	1.828283063398046	-0.36021940505293976	-0.21707557942947367	1.9844678513508796	-0.5777194200798957	-0.20813491900028458	1.9060681899743008	-0.5866501489404237	-0.21310312787633068	1.8350956774535485	-0.599636435911136
6	0.2	-0.247973801234337	1.8300002802986617	-0.47498288027564795	-0.26214591925485725	1.8274676856045666	-0.40958343911666234																-0.23633881428482886	1.8299843834707838	-0.5357113358683355	-0.21888555593442421	1.7144913281044714	-0.5603677853113251	-0.21061751656255928	1.5898321251119234	-0.5393021445133336	-0.23013906101805004	1.5566439455020178	-0.568558741582286	-0.21929753072469577	1.5651709484737013	-0.5805147032442507	-0.19574952017379155	1.5786348579794647	-0.5536014142663019	-0.24040920268307014	1.9828007285944556	-0.4846793671439632	-0.24974904966448047	2.054677008843259	-0.5392280057378018	-0.2618437364015237	1.9805527788527628	-0.3943310522971058	-0.27356562681942737	1.895156802850283	-0.36385294640728305	-0.2773312521865281	1.826911726581155	-0.3598723981511486	-0.2190452020739259	1.9845672290409526	-0.5755555252869556	-0.21028617172670888	1.904365331585166	-0.5843441379552088	-0.21259097859557055	1.8324718641161504	-0.5962292816961304
7	0.23333333333333334	-0.24605167655117727	1.8305183931047022	-0.47183468816393526	-0.26038829368982114	1.82601131485487	-0.4062717576282322																-0.2346026064879483	1.8290455884101662	-0.53269139257384	-0.21888555593442421	1.7144913281044714	-0.5603677853113251	-0.21061751656255928	1.5898321251119234	-0.5393021445133336	-0.23013906101805004	1.5566439455020178	-0.568558741582286	-0.21929753072469577	1.5651709484737013	-0.5805147032442507	-0.19574952017379155	1.5786348579794647	-0.5536014142663019	-1.7503379400146213	1.8898395592682273	1.183054540547793	-0.25160257098227884	2.0534485778934863	-0.5365422980272964	-0.26371756753185455	1.980649594317433	-0.39220808725575296	-0.27357379063656534	1.8949272932852037	-0.3638854403593661	-0.2778658161311951	1.8279174698777423	-0.3617304984808632	-0.21822379007351309	1.9841393119233108	-0.5725049463595664	-0.2093615099706288	1.903899031723392	-0.5811517298092325	-0.21195108571055893	1.8307831986136853	-0.5962470701437558
8	0.26666666666666666	-0.24935474228623059	1.830767704936935	-0.4729052485282463	-0.2634902007150374	1.828334528159449	-0.4075522857314518																-0.23691491995793382	1.8317897801443097	-0.5307675832134066	-0.21888555593442421	1.7144913281044714	-0.5603677853113251	-0.21061751656255928	1.5898321251119234	-0.5393021445133336	-0.23013906101805004	1.5566439455020178	-0.568558741582286	-0.21929753072469577	1.5651709484737013	-0.5805147032442507	-0.19574952017379155	1.5786348579794647	-0.5536014142663019	-0.24238296889705352	1.98249515229374	-0.4824508021661875	-0.24969450612663097	2.0509171004977182	-0.529987931721789	-0.2638121372071551	1.9820496298699826	-0.3926426017891759	-0.2737017145173343	1.896774606920456	-0.36410822531513315	-0.27840038007586215	1.8289232131743296	-0.3635885988105778	-0.21823729606147424	1.9846571199234089	-0.5723821636942406	-0.20923663535250522	1.9068924866099832	-0.581221268069496	-0.2133535195857993	1.8355938847579205	-0.599767192274672
9	0.3	-0.250915137188412	1.8297048395717581	-0.4760582103278732	-0.2640633217222763	1.8277969195384949	-0.40753822777754056																-0.23843692152213902	1.8309520548224398	-0.5336751983076609	-0.21888555593442421	1.7144913281044714	-0.5603677853113251	-0.21061751656255928	1.5898321251119234	-0.5393021445133336	-0.23013906101805004	1.5566439455020178	-0.568558741582286	-0.21929753072469577	1.5651709484737013	-0.5805147032442507	-0.19574952017379155	1.5786348579794647	-0.5536014142663019	-0.24046744981934498	1.9825793021777078	-0.4844282064466816	-0.2497373794848687	2.0508709233529254	-0.529824910816081	-0.2626881481203229	1.9803165386286723	-0.38904674273484613	-0.2737287182665757	1.8970342107119773	-0.36410384807768403	-0.2785276746745015	1.8281504066781773	-0.363153233097299	-0.21820174830504263	1.9845122699179816	-0.5723690118817792	-0.20952249737132986	1.9057885724375678	-0.5814289507835685	-0.21381452998451758	1.8331644999757573	-0.5992696042802248
10	0.3333333333333333	-0.25063686312309025	1.83163925238173	-0.47643061416506693	-0.26373696373911487	1.829396833767821	-0.40788974578731946																-0.2381454290231055	1.8328872159277954	-0.5341022381706252	-0.21888555593442421	1.7144913281044714	-0.5603677853113251	-0.21061751656255928	1.5898321251119234	-0.5393021445133336	-0.23013906101805004	1.5566439455020178	-0.568558741582286	-0.21929753072469577	1.5651709484737013	-0.5805147032442507	-0.19574952017379155	1.5786348579794647	-0.5536014142663019	-1.7513564316377828	1.8898063396664682	1.1843464952133171	-0.25175995204873036	2.0496107794759255	-0.5278744731879583	-0.26275401404823545	1.9803946761485993	-0.38892879433961425	-0.27364062836683156	1.8948485623110298	-0.363747026663908	-0.2786670171164208	1.8267405824020961	-0.3611682354472995	-0.2182859682162077	1.9844661900683258	-0.5723887059180903	-0.21204431368035062	1.907099647814461	-0.5908481955467783	-0.21351402181831639	1.8362811925676774	-0.5997547718437175
